<svg width="179" height="179" viewBox="0 0 179 179" fill="none" xmlns="http://www.w3.org/2000/svg">
<path d="M29.8333 145.438V33.5625C29.8333 28.6173 31.7978 23.8747 35.2946 20.3779C38.7913 16.8811 43.534 14.9167 48.4792 14.9167H141.708C143.686 14.9167 145.583 15.7025 146.982 17.1012C148.381 18.4999 149.167 20.3969 149.167 22.375V156.625C149.167 158.603 148.381 160.5 146.982 161.899C145.583 163.298 143.686 164.083 141.708 164.083H48.4792C43.534 164.083 38.7913 162.119 35.2946 158.622C31.7978 155.125 29.8333 150.383 29.8333 145.438ZM29.8333 145.438C29.8333 140.492 31.7978 135.75 35.2946 132.253C38.7913 128.756 43.534 126.792 48.4792 126.792H149.167" stroke="currentColor" stroke-width="14.9167" stroke-linecap="round" stroke-linejoin="round"/>
<path d="M51 44L70.5 101L89.5 62.5L109 101L128 44" stroke="currentColor" stroke-width="14.9167" stroke-linecap="round" stroke-linejoin="round"/>
</svg>
